<?xml version="1.0" encoding="utf-8"?>
<!-- Generator: Adobe Illustrator 22.1.0, SVG Export Plug-In . SVG Version: 6.00 Build 0)  -->
<svg version="1.1" id="图层_1" xmlns="http://www.w3.org/2000/svg" xmlns:xlink="http://www.w3.org/1999/xlink" x="0px" y="0px"
	 viewBox="0 0 139 28" style="enable-background:new 0 0 139 28;" xml:space="preserve">
<style type="text/css">
	.st0{fill:#FFFFFF;}
</style>
<title>Group</title>
<desc>Created with Sketch.</desc>
<g>
	<path class="st0" d="M101.2,20.6c-0.9-1-1.3-2.4-1.3-4c0-1.7,0.4-3.1,1.3-4.1s1.9-1.6,3.3-1.6c1,0,2.2,0.2,3.7,0.7V9.3
		c-1.4-0.3-2.7-0.5-3.9-0.5c-2.3,0-4.2,0.7-5.5,2c-1.3,1.3-2,3.2-2,5.6c0,2.3,0.7,4.1,2,5.6c1.3,1.5,3,2.2,5,2.2
		c1.3,0,2.8-0.3,4.5-0.8v-2.3c-1.3,0.6-2.6,0.9-3.8,0.9C103.2,22.2,102,21.7,101.2,20.6z"/>
	<path class="st0" d="M123,22.5c-0.9,0-1.4-0.8-1.4-2.3v-6.7c0-1.6-0.4-2.7-1.2-3.5c-0.8-0.7-2-1.1-3.7-1.1c-1.6,0-3.3,0.4-5.1,1.1
		v2.2c1.6-0.9,3.2-1.3,4.6-1.3c1.8,0,2.7,0.9,2.7,2.6v1.8h-0.6c-2.5,0-4.5,0.4-5.9,1.3c-1.4,0.9-2,2.1-2,3.7c0,1.2,0.4,2.1,1.2,2.9
		c0.8,0.8,1.8,1.2,3.1,1.2c1.5,0,3-0.7,4.7-2.2c0.3,1.5,1.1,2.2,2.4,2.2c0.7,0,1.4-0.1,2-0.4l-0.2-1.5
		C123.3,22.5,123.1,22.5,123,22.5z M118.8,20.7c-1.2,1-2.4,1.5-3.5,1.5c-0.7,0-1.2-0.2-1.7-0.7c-0.5-0.4-0.7-1-0.7-1.6
		c0-0.9,0.5-1.6,1.4-2.2c0.9-0.6,2.1-0.8,3.6-0.8l0.9,0V20.7z"/>
	<path class="st0" d="M137.2,10c-0.8-0.8-1.8-1.2-3.1-1.2c-2.1,0-3.8,1-5.2,3.1V9.2h-2.7V24h2.7v-9.6c1.5-2.2,3-3.2,4.7-3.2
		c0.7,0,1.3,0.2,1.6,0.7c0.3,0.5,0.5,1.3,0.5,2.4V24h2.7V13.3C138.4,12,138,10.9,137.2,10z"/>
	<path class="st0" d="M47.2,3.8h-5.5V24h2.8v-8h1.3c2.6,0,4.6-0.6,6.1-1.8c1.5-1.2,2.2-2.9,2.2-5.1c0-1.9-0.5-3.2-1.6-4.1
		S49.6,3.8,47.2,3.8z M49.6,12.6c-0.9,0.8-2.2,1.2-4,1.2h-1.2V5.9h1.8c1.7,0,2.9,0.3,3.7,0.8C50.7,7.2,51,8.1,51,9.3
		C51,10.7,50.6,11.8,49.6,12.6z"/>
	<path class="st0" d="M67.8,22.5c-0.9,0-1.4-0.8-1.4-2.3v-6.7c0-1.6-0.4-2.7-1.2-3.5c-0.8-0.7-2-1.1-3.7-1.1c-1.6,0-3.3,0.4-5.1,1.1
		v2.2c1.6-0.9,3.2-1.3,4.6-1.3c1.8,0,2.7,0.9,2.7,2.6v1.8h-0.6c-2.5,0-4.5,0.4-5.9,1.3c-1.4,0.9-2,2.1-2,3.7c0,1.2,0.4,2.1,1.2,2.9
		c0.8,0.8,1.8,1.2,3.1,1.2c1.5,0,3-0.7,4.7-2.2c0.3,1.5,1.1,2.2,2.4,2.2c0.7,0,1.4-0.1,2-0.4l-0.2-1.5
		C68.1,22.5,67.9,22.5,67.8,22.5z M63.7,20.7c-1.2,1-2.4,1.5-3.5,1.5c-0.7,0-1.2-0.2-1.7-0.7c-0.5-0.4-0.7-1-0.7-1.6
		c0-0.9,0.5-1.6,1.4-2.2c0.9-0.6,2.1-0.8,3.6-0.8l0.9,0V20.7z"/>
	<path class="st0" d="M76.5,15.3l-1.3-0.5c-1.3-0.6-2-1.2-2-2.1c0-1.3,0.9-1.9,2.6-1.9c0.9,0,2.1,0.2,3.6,0.7V9.3l-0.6-0.1
		c-1.2-0.2-2.2-0.3-3.1-0.3c-1.6,0-2.9,0.4-3.8,1.1s-1.4,1.8-1.4,3.1c0,1.8,1.2,3.2,3.5,4.2l1.6,0.7c1.4,0.6,2.1,1.4,2.1,2.3
		c0,0.6-0.3,1.2-0.8,1.6c-0.5,0.4-1.2,0.6-1.9,0.6c-1.3,0-2.8-0.4-4.6-1.3v2.5c1.8,0.6,3.3,0.9,4.5,0.9c1.6,0,2.9-0.4,4-1.3
		c1-0.8,1.5-1.9,1.5-3.2c0-1-0.3-1.9-0.9-2.6C79,16.6,78,16,76.5,15.3z"/>
	<path class="st0" d="M90,15.3l-1.3-0.5c-1.3-0.6-2-1.2-2-2.1c0-1.3,0.9-1.9,2.6-1.9c0.9,0,2.1,0.2,3.6,0.7V9.3l-0.6-0.1
		c-1.2-0.2-2.2-0.3-3.1-0.3c-1.6,0-2.9,0.4-3.8,1.1s-1.4,1.8-1.4,3.1c0,1.8,1.2,3.2,3.5,4.2l1.6,0.7c1.4,0.6,2.1,1.4,2.1,2.3
		c0,0.6-0.3,1.2-0.8,1.6s-1.2,0.6-1.9,0.6c-1.3,0-2.8-0.4-4.6-1.3v2.5c1.8,0.6,3.3,0.9,4.5,0.9c1.6,0,2.9-0.4,4-1.3s1.5-1.9,1.5-3.2
		c0-1-0.3-1.9-0.9-2.6S91.4,16,90,15.3z"/>
	<path class="st0" d="M0.7,7.6v13.1l11.5,6.6l11.5-6.6V7.6L12.2,0.9L0.7,7.6z M12.2,13.4c-1.2,0-2.1-0.9-2.1-2.1
		c0-1.2,0.9-2.1,2.1-2.1c1.2,0,2.1,0.9,2.1,2.1C14.3,12.5,13.4,13.4,12.2,13.4z M21.3,19.3l-7.8,4.5c0,0,0-0.1,0-0.2v-3.1h1.7
		c0.3,0,0.5-0.2,0.5-0.5v-2c0-0.3-0.2-0.5-0.5-0.5h-1.7v-1.9c2-0.5,3.4-2.4,3.4-4.5c0-2.6-2.1-4.7-4.7-4.7c-2.6,0-4.7,2.1-4.7,4.7
		c0,2.2,1.5,4,3.5,4.5v7.9c0,0.1,0,0.2,0,0.2l-8-4.6V9l9.1-5.2L21.3,9V19.3z"/>
</g>
</svg>
